<mxfile host="Electron" agent="Mozilla/5.0 (Windows NT 10.0; Win64; x64) AppleWebKit/537.36 (KHTML, like Gecko) draw.io/28.0.6 Chrome/138.0.7204.100 Electron/37.2.3 Safari/537.36" version="28.0.6">
  <diagram name="Page-1" id="Xhda8wihB02Vik5xuTyf">
    <mxGraphModel dx="2056" dy="1622" grid="0" gridSize="10" guides="1" tooltips="1" connect="1" arrows="1" fold="1" page="0" pageScale="1" pageWidth="850" pageHeight="1100" math="0" shadow="0">
      <root>
        <mxCell id="0" />
        <mxCell id="1" parent="0" />
        <mxCell id="nleeSaPgpGvsYUwv4QzV-2" value="" style="shape=trapezoid;perimeter=trapezoidPerimeter;whiteSpace=wrap;html=1;fixedSize=1;direction=south;size=120;" parent="1" vertex="1">
          <mxGeometry x="340" y="80" width="80" height="680" as="geometry" />
        </mxCell>
        <mxCell id="nleeSaPgpGvsYUwv4QzV-4" value="" style="endArrow=none;html=1;rounded=0;" parent="1" edge="1">
          <mxGeometry width="50" height="50" relative="1" as="geometry">
            <mxPoint x="280" y="250" as="sourcePoint" />
            <mxPoint x="340" y="250" as="targetPoint" />
          </mxGeometry>
        </mxCell>
        <mxCell id="nleeSaPgpGvsYUwv4QzV-5" value="" style="endArrow=none;html=1;rounded=0;" parent="1" edge="1">
          <mxGeometry width="50" height="50" relative="1" as="geometry">
            <mxPoint x="280" y="290" as="sourcePoint" />
            <mxPoint x="340" y="290" as="targetPoint" />
          </mxGeometry>
        </mxCell>
        <mxCell id="nleeSaPgpGvsYUwv4QzV-6" value="" style="endArrow=none;html=1;rounded=0;" parent="1" edge="1">
          <mxGeometry width="50" height="50" relative="1" as="geometry">
            <mxPoint x="280" y="330" as="sourcePoint" />
            <mxPoint x="340" y="330" as="targetPoint" />
          </mxGeometry>
        </mxCell>
        <mxCell id="nleeSaPgpGvsYUwv4QzV-7" value="" style="endArrow=none;html=1;rounded=0;" parent="1" edge="1">
          <mxGeometry width="50" height="50" relative="1" as="geometry">
            <mxPoint x="280" y="370" as="sourcePoint" />
            <mxPoint x="340" y="370" as="targetPoint" />
          </mxGeometry>
        </mxCell>
        <mxCell id="nleeSaPgpGvsYUwv4QzV-8" value="" style="endArrow=none;html=1;rounded=0;" parent="1" edge="1">
          <mxGeometry width="50" height="50" relative="1" as="geometry">
            <mxPoint x="280" y="410" as="sourcePoint" />
            <mxPoint x="340" y="410" as="targetPoint" />
          </mxGeometry>
        </mxCell>
        <mxCell id="nleeSaPgpGvsYUwv4QzV-9" value="" style="endArrow=none;html=1;rounded=0;" parent="1" edge="1">
          <mxGeometry width="50" height="50" relative="1" as="geometry">
            <mxPoint x="280" y="450" as="sourcePoint" />
            <mxPoint x="340" y="450" as="targetPoint" />
          </mxGeometry>
        </mxCell>
        <mxCell id="nleeSaPgpGvsYUwv4QzV-10" value="" style="endArrow=none;html=1;rounded=0;" parent="1" edge="1">
          <mxGeometry width="50" height="50" relative="1" as="geometry">
            <mxPoint x="280" y="490" as="sourcePoint" />
            <mxPoint x="340" y="490" as="targetPoint" />
          </mxGeometry>
        </mxCell>
        <mxCell id="nleeSaPgpGvsYUwv4QzV-11" value="" style="endArrow=none;html=1;rounded=0;" parent="1" edge="1">
          <mxGeometry width="50" height="50" relative="1" as="geometry">
            <mxPoint x="280" y="530" as="sourcePoint" />
            <mxPoint x="340" y="530" as="targetPoint" />
          </mxGeometry>
        </mxCell>
        <mxCell id="nleeSaPgpGvsYUwv4QzV-12" value="" style="endArrow=none;html=1;rounded=0;" parent="1" edge="1">
          <mxGeometry width="50" height="50" relative="1" as="geometry">
            <mxPoint x="280" y="690" as="sourcePoint" />
            <mxPoint x="340" y="690" as="targetPoint" />
          </mxGeometry>
        </mxCell>
        <mxCell id="nleeSaPgpGvsYUwv4QzV-13" value="" style="endArrow=none;html=1;rounded=0;" parent="1" edge="1">
          <mxGeometry width="50" height="50" relative="1" as="geometry">
            <mxPoint x="280" y="650" as="sourcePoint" />
            <mxPoint x="340" y="650" as="targetPoint" />
          </mxGeometry>
        </mxCell>
        <mxCell id="nleeSaPgpGvsYUwv4QzV-14" value="" style="endArrow=none;html=1;rounded=0;" parent="1" edge="1">
          <mxGeometry width="50" height="50" relative="1" as="geometry">
            <mxPoint x="280" y="610" as="sourcePoint" />
            <mxPoint x="340" y="610" as="targetPoint" />
          </mxGeometry>
        </mxCell>
        <mxCell id="nleeSaPgpGvsYUwv4QzV-15" value="" style="endArrow=none;html=1;rounded=0;" parent="1" edge="1">
          <mxGeometry width="50" height="50" relative="1" as="geometry">
            <mxPoint x="280" y="570" as="sourcePoint" />
            <mxPoint x="340" y="570" as="targetPoint" />
          </mxGeometry>
        </mxCell>
        <mxCell id="nleeSaPgpGvsYUwv4QzV-16" value="" style="endArrow=none;html=1;rounded=0;" parent="1" edge="1">
          <mxGeometry width="50" height="50" relative="1" as="geometry">
            <mxPoint x="280" y="130" as="sourcePoint" />
            <mxPoint x="340" y="130" as="targetPoint" />
          </mxGeometry>
        </mxCell>
        <mxCell id="nleeSaPgpGvsYUwv4QzV-17" value="" style="endArrow=none;html=1;rounded=0;" parent="1" edge="1">
          <mxGeometry width="50" height="50" relative="1" as="geometry">
            <mxPoint x="280" y="170" as="sourcePoint" />
            <mxPoint x="340" y="170" as="targetPoint" />
          </mxGeometry>
        </mxCell>
        <mxCell id="nleeSaPgpGvsYUwv4QzV-18" value="" style="endArrow=none;html=1;rounded=0;" parent="1" edge="1">
          <mxGeometry width="50" height="50" relative="1" as="geometry">
            <mxPoint x="280" y="210" as="sourcePoint" />
            <mxPoint x="340" y="210" as="targetPoint" />
          </mxGeometry>
        </mxCell>
        <mxCell id="nleeSaPgpGvsYUwv4QzV-19" value="" style="endArrow=none;html=1;rounded=0;" parent="1" edge="1">
          <mxGeometry width="50" height="50" relative="1" as="geometry">
            <mxPoint x="280" y="730" as="sourcePoint" />
            <mxPoint x="340" y="730" as="targetPoint" />
          </mxGeometry>
        </mxCell>
        <mxCell id="nleeSaPgpGvsYUwv4QzV-20" value="" style="endArrow=none;html=1;rounded=0;entryX=0;entryY=0.25;entryDx=0;entryDy=0;entryPerimeter=0;" parent="1" target="nleeSaPgpGvsYUwv4QzV-129" edge="1">
          <mxGeometry width="50" height="50" relative="1" as="geometry">
            <mxPoint x="420" y="410" as="sourcePoint" />
            <mxPoint x="480" y="410" as="targetPoint" />
          </mxGeometry>
        </mxCell>
        <mxCell id="nleeSaPgpGvsYUwv4QzV-23" value="" style="whiteSpace=wrap;html=1;aspect=fixed;" parent="1" vertex="1">
          <mxGeometry x="260" y="120" width="20" height="20" as="geometry" />
        </mxCell>
        <mxCell id="nleeSaPgpGvsYUwv4QzV-24" value="" style="whiteSpace=wrap;html=1;aspect=fixed;" parent="1" vertex="1">
          <mxGeometry x="260" y="160" width="20" height="20" as="geometry" />
        </mxCell>
        <mxCell id="nleeSaPgpGvsYUwv4QzV-25" value="" style="whiteSpace=wrap;html=1;aspect=fixed;" parent="1" vertex="1">
          <mxGeometry x="260" y="200" width="20" height="20" as="geometry" />
        </mxCell>
        <mxCell id="nleeSaPgpGvsYUwv4QzV-28" style="edgeStyle=orthogonalEdgeStyle;rounded=0;orthogonalLoop=1;jettySize=auto;html=1;exitX=1;exitY=0.5;exitDx=0;exitDy=-5;exitPerimeter=0;" parent="1" source="nleeSaPgpGvsYUwv4QzV-26" edge="1">
          <mxGeometry relative="1" as="geometry">
            <mxPoint x="280" y="250" as="targetPoint" />
          </mxGeometry>
        </mxCell>
        <mxCell id="nleeSaPgpGvsYUwv4QzV-26" value="" style="shadow=0;dashed=0;align=center;html=1;strokeWidth=1;shape=mxgraph.electrical.abstract.mux2;whiteSpace=wrap;" parent="1" vertex="1">
          <mxGeometry x="160" y="230" width="40" height="50" as="geometry" />
        </mxCell>
        <mxCell id="nleeSaPgpGvsYUwv4QzV-29" value="" style="verticalLabelPosition=bottom;shadow=0;dashed=0;align=center;html=1;verticalAlign=top;shape=mxgraph.electrical.logic_gates.logic_gate;operation=and;" parent="1" vertex="1">
          <mxGeometry x="250" y="280" width="30" height="20" as="geometry" />
        </mxCell>
        <mxCell id="nleeSaPgpGvsYUwv4QzV-30" value="" style="verticalLabelPosition=bottom;shadow=0;dashed=0;align=center;html=1;verticalAlign=top;shape=mxgraph.electrical.logic_gates.logic_gate;operation=or;" parent="1" vertex="1">
          <mxGeometry x="250" y="320" width="30" height="20" as="geometry" />
        </mxCell>
        <mxCell id="nleeSaPgpGvsYUwv4QzV-31" value="" style="verticalLabelPosition=bottom;shadow=0;dashed=0;align=center;html=1;verticalAlign=top;shape=mxgraph.electrical.logic_gates.logic_gate;operation=and;negating=1;negSize=0.15;" parent="1" vertex="1">
          <mxGeometry x="250" y="360" width="30" height="20" as="geometry" />
        </mxCell>
        <mxCell id="nleeSaPgpGvsYUwv4QzV-32" value="" style="verticalLabelPosition=bottom;shadow=0;dashed=0;align=center;html=1;verticalAlign=top;shape=mxgraph.electrical.logic_gates.logic_gate;operation=or;negating=1;negSize=0.15;" parent="1" vertex="1">
          <mxGeometry x="250" y="400" width="30" height="20" as="geometry" />
        </mxCell>
        <mxCell id="nleeSaPgpGvsYUwv4QzV-33" value="" style="verticalLabelPosition=bottom;shadow=0;dashed=0;align=center;html=1;verticalAlign=top;shape=mxgraph.electrical.logic_gates.logic_gate;operation=xor;" parent="1" vertex="1">
          <mxGeometry x="250" y="440" width="30" height="20" as="geometry" />
        </mxCell>
        <mxCell id="nleeSaPgpGvsYUwv4QzV-34" value="" style="verticalLabelPosition=bottom;shadow=0;dashed=0;align=center;html=1;verticalAlign=top;shape=mxgraph.electrical.logic_gates.logic_gate;operation=xor;negating=1;negSize=0.15;" parent="1" vertex="1">
          <mxGeometry x="250" y="480" width="30" height="20" as="geometry" />
        </mxCell>
        <mxCell id="nleeSaPgpGvsYUwv4QzV-42" value="shift right 1" style="rounded=0;whiteSpace=wrap;html=1;" parent="1" vertex="1">
          <mxGeometry x="210" y="640" width="70" height="20" as="geometry" />
        </mxCell>
        <mxCell id="nleeSaPgpGvsYUwv4QzV-43" value="shift left 1" style="rounded=0;whiteSpace=wrap;html=1;" parent="1" vertex="1">
          <mxGeometry x="210" y="680" width="70" height="20" as="geometry" />
        </mxCell>
        <mxCell id="nleeSaPgpGvsYUwv4QzV-44" value="" style="shadow=0;dashed=0;align=center;html=1;strokeWidth=1;shape=mxgraph.electrical.abstract.mux2;whiteSpace=wrap;" parent="1" vertex="1">
          <mxGeometry x="90" y="450" width="40" height="50" as="geometry" />
        </mxCell>
        <mxCell id="nleeSaPgpGvsYUwv4QzV-51" style="edgeStyle=orthogonalEdgeStyle;rounded=0;orthogonalLoop=1;jettySize=auto;html=1;exitX=1;exitY=0.5;exitDx=0;exitDy=-5;exitPerimeter=0;" parent="1" source="nleeSaPgpGvsYUwv4QzV-45" edge="1">
          <mxGeometry relative="1" as="geometry">
            <mxPoint x="280" y="570" as="targetPoint" />
          </mxGeometry>
        </mxCell>
        <mxCell id="nleeSaPgpGvsYUwv4QzV-45" value="" style="shadow=0;dashed=0;align=center;html=1;strokeWidth=1;shape=mxgraph.electrical.abstract.mux2;whiteSpace=wrap;" parent="1" vertex="1">
          <mxGeometry x="90" y="530" width="40" height="50" as="geometry" />
        </mxCell>
        <mxCell id="nleeSaPgpGvsYUwv4QzV-52" style="edgeStyle=orthogonalEdgeStyle;rounded=0;orthogonalLoop=1;jettySize=auto;html=1;exitX=1;exitY=0.5;exitDx=0;exitDy=-5;exitPerimeter=0;" parent="1" source="nleeSaPgpGvsYUwv4QzV-46" edge="1">
          <mxGeometry relative="1" as="geometry">
            <mxPoint x="280" y="610" as="targetPoint" />
          </mxGeometry>
        </mxCell>
        <mxCell id="nleeSaPgpGvsYUwv4QzV-46" value="" style="shadow=0;dashed=0;align=center;html=1;strokeWidth=1;shape=mxgraph.electrical.abstract.mux2;whiteSpace=wrap;" parent="1" vertex="1">
          <mxGeometry x="90" y="610" width="40" height="50" as="geometry" />
        </mxCell>
        <mxCell id="nleeSaPgpGvsYUwv4QzV-50" value="" style="endArrow=classic;html=1;rounded=0;exitX=1;exitY=0.5;exitDx=0;exitDy=-5;exitPerimeter=0;" parent="1" source="nleeSaPgpGvsYUwv4QzV-44" edge="1">
          <mxGeometry width="50" height="50" relative="1" as="geometry">
            <mxPoint x="250" y="580" as="sourcePoint" />
            <mxPoint x="280" y="530" as="targetPoint" />
            <Array as="points">
              <mxPoint x="160" y="470" />
              <mxPoint x="160" y="530" />
            </Array>
          </mxGeometry>
        </mxCell>
        <mxCell id="nleeSaPgpGvsYUwv4QzV-53" value="+" style="text;html=1;align=center;verticalAlign=middle;resizable=0;points=[];autosize=1;strokeColor=none;fillColor=none;" parent="1" vertex="1">
          <mxGeometry x="255" y="115" width="30" height="30" as="geometry" />
        </mxCell>
        <mxCell id="nleeSaPgpGvsYUwv4QzV-54" value="-" style="text;html=1;align=center;verticalAlign=middle;resizable=0;points=[];autosize=1;strokeColor=none;fillColor=none;" parent="1" vertex="1">
          <mxGeometry x="255" y="155" width="30" height="30" as="geometry" />
        </mxCell>
        <mxCell id="nleeSaPgpGvsYUwv4QzV-55" value="*" style="text;html=1;align=center;verticalAlign=middle;resizable=0;points=[];autosize=1;strokeColor=none;fillColor=none;" parent="1" vertex="1">
          <mxGeometry x="255" y="195" width="30" height="30" as="geometry" />
        </mxCell>
        <mxCell id="nleeSaPgpGvsYUwv4QzV-56" value="" style="whiteSpace=wrap;html=1;aspect=fixed;" parent="1" vertex="1">
          <mxGeometry x="140" y="250" width="20" height="20" as="geometry" />
        </mxCell>
        <mxCell id="nleeSaPgpGvsYUwv4QzV-57" value="/" style="text;html=1;align=center;verticalAlign=middle;resizable=0;points=[];autosize=1;strokeColor=none;fillColor=none;" parent="1" vertex="1">
          <mxGeometry x="135" y="245" width="30" height="30" as="geometry" />
        </mxCell>
        <mxCell id="nleeSaPgpGvsYUwv4QzV-58" value="0" style="text;html=1;align=center;verticalAlign=middle;resizable=0;points=[];autosize=1;strokeColor=none;fillColor=none;" parent="1" vertex="1">
          <mxGeometry x="140" y="225" width="30" height="30" as="geometry" />
        </mxCell>
        <mxCell id="nleeSaPgpGvsYUwv4QzV-59" value="" style="endArrow=none;html=1;rounded=0;" parent="1" edge="1">
          <mxGeometry width="50" height="50" relative="1" as="geometry">
            <mxPoint x="125" y="254.73" as="sourcePoint" />
            <mxPoint x="140" y="254.73" as="targetPoint" />
          </mxGeometry>
        </mxCell>
        <mxCell id="nleeSaPgpGvsYUwv4QzV-60" value="" style="endArrow=none;html=1;rounded=0;" parent="1" edge="1">
          <mxGeometry width="50" height="50" relative="1" as="geometry">
            <mxPoint x="125" y="264.86" as="sourcePoint" />
            <mxPoint x="140" y="264.86" as="targetPoint" />
          </mxGeometry>
        </mxCell>
        <mxCell id="nleeSaPgpGvsYUwv4QzV-61" value="" style="endArrow=none;html=1;rounded=0;" parent="1" edge="1">
          <mxGeometry width="50" height="50" relative="1" as="geometry">
            <mxPoint x="245" y="124.86" as="sourcePoint" />
            <mxPoint x="260" y="124.86" as="targetPoint" />
          </mxGeometry>
        </mxCell>
        <mxCell id="nleeSaPgpGvsYUwv4QzV-62" value="" style="endArrow=none;html=1;rounded=0;" parent="1" edge="1">
          <mxGeometry width="50" height="50" relative="1" as="geometry">
            <mxPoint x="245" y="134.86" as="sourcePoint" />
            <mxPoint x="260" y="134.86" as="targetPoint" />
          </mxGeometry>
        </mxCell>
        <mxCell id="nleeSaPgpGvsYUwv4QzV-63" value="" style="endArrow=none;html=1;rounded=0;" parent="1" edge="1">
          <mxGeometry width="50" height="50" relative="1" as="geometry">
            <mxPoint x="245" y="164.86" as="sourcePoint" />
            <mxPoint x="260" y="164.86" as="targetPoint" />
          </mxGeometry>
        </mxCell>
        <mxCell id="nleeSaPgpGvsYUwv4QzV-64" value="" style="endArrow=none;html=1;rounded=0;" parent="1" edge="1">
          <mxGeometry width="50" height="50" relative="1" as="geometry">
            <mxPoint x="245" y="174.86" as="sourcePoint" />
            <mxPoint x="260" y="174.86" as="targetPoint" />
          </mxGeometry>
        </mxCell>
        <mxCell id="nleeSaPgpGvsYUwv4QzV-65" value="" style="endArrow=none;html=1;rounded=0;" parent="1" edge="1">
          <mxGeometry width="50" height="50" relative="1" as="geometry">
            <mxPoint x="245" y="204.86" as="sourcePoint" />
            <mxPoint x="260" y="204.86" as="targetPoint" />
          </mxGeometry>
        </mxCell>
        <mxCell id="nleeSaPgpGvsYUwv4QzV-66" value="" style="endArrow=none;html=1;rounded=0;" parent="1" edge="1">
          <mxGeometry width="50" height="50" relative="1" as="geometry">
            <mxPoint x="245" y="215.86" as="sourcePoint" />
            <mxPoint x="260" y="215.86" as="targetPoint" />
          </mxGeometry>
        </mxCell>
        <mxCell id="nleeSaPgpGvsYUwv4QzV-67" value="" style="endArrow=none;html=1;rounded=0;" parent="1" edge="1">
          <mxGeometry width="50" height="50" relative="1" as="geometry">
            <mxPoint x="195" y="649.92" as="sourcePoint" />
            <mxPoint x="210" y="649.92" as="targetPoint" />
          </mxGeometry>
        </mxCell>
        <mxCell id="nleeSaPgpGvsYUwv4QzV-68" value="" style="endArrow=none;html=1;rounded=0;" parent="1" edge="1">
          <mxGeometry width="50" height="50" relative="1" as="geometry">
            <mxPoint x="195" y="689.92" as="sourcePoint" />
            <mxPoint x="210" y="689.92" as="targetPoint" />
          </mxGeometry>
        </mxCell>
        <mxCell id="nleeSaPgpGvsYUwv4QzV-69" value="0" style="text;html=1;align=center;verticalAlign=middle;resizable=0;points=[];autosize=1;strokeColor=none;fillColor=none;" parent="1" vertex="1">
          <mxGeometry x="255" y="714" width="30" height="30" as="geometry" />
        </mxCell>
        <mxCell id="nleeSaPgpGvsYUwv4QzV-70" value="" style="endArrow=none;html=1;rounded=0;entryX=0.079;entryY=0.996;entryDx=0;entryDy=0;entryPerimeter=0;" parent="1" edge="1" target="qwn3S0I-8Y9VkRRU26vE-36">
          <mxGeometry width="50" height="50" relative="1" as="geometry">
            <mxPoint x="280" y="124" as="sourcePoint" />
            <mxPoint x="500" y="-315" as="targetPoint" />
            <Array as="points">
              <mxPoint x="280" y="-244" />
            </Array>
          </mxGeometry>
        </mxCell>
        <mxCell id="nleeSaPgpGvsYUwv4QzV-71" value="" style="endArrow=none;html=1;rounded=0;entryX=0.129;entryY=1;entryDx=0;entryDy=0;entryPerimeter=0;" parent="1" edge="1" target="qwn3S0I-8Y9VkRRU26vE-36">
          <mxGeometry width="50" height="50" relative="1" as="geometry">
            <mxPoint x="280" y="164" as="sourcePoint" />
            <mxPoint x="500" y="-280" as="targetPoint" />
            <Array as="points">
              <mxPoint x="320" y="164" />
              <mxPoint x="320" y="-210" />
            </Array>
          </mxGeometry>
        </mxCell>
        <mxCell id="nleeSaPgpGvsYUwv4QzV-72" value="A" style="text;html=1;align=center;verticalAlign=middle;resizable=0;points=[];autosize=1;strokeColor=none;fillColor=none;" parent="1" vertex="1">
          <mxGeometry x="223" y="106" width="30" height="30" as="geometry" />
        </mxCell>
        <mxCell id="nleeSaPgpGvsYUwv4QzV-73" value="B" style="text;html=1;align=center;verticalAlign=middle;resizable=0;points=[];autosize=1;strokeColor=none;fillColor=none;" parent="1" vertex="1">
          <mxGeometry x="223" y="122" width="30" height="30" as="geometry" />
        </mxCell>
        <mxCell id="nleeSaPgpGvsYUwv4QzV-74" value="B" style="text;html=1;align=center;verticalAlign=middle;resizable=0;points=[];autosize=1;strokeColor=none;fillColor=none;" parent="1" vertex="1">
          <mxGeometry x="225" y="160" width="30" height="30" as="geometry" />
        </mxCell>
        <mxCell id="nleeSaPgpGvsYUwv4QzV-75" value="A" style="text;html=1;align=center;verticalAlign=middle;resizable=0;points=[];autosize=1;strokeColor=none;fillColor=none;" parent="1" vertex="1">
          <mxGeometry x="224" y="145" width="30" height="30" as="geometry" />
        </mxCell>
        <mxCell id="nleeSaPgpGvsYUwv4QzV-76" value="A" style="text;html=1;align=center;verticalAlign=middle;resizable=0;points=[];autosize=1;strokeColor=none;fillColor=none;" parent="1" vertex="1">
          <mxGeometry x="224" y="190" width="30" height="30" as="geometry" />
        </mxCell>
        <mxCell id="nleeSaPgpGvsYUwv4QzV-77" value="A" style="text;html=1;align=center;verticalAlign=middle;resizable=0;points=[];autosize=1;strokeColor=none;fillColor=none;" parent="1" vertex="1">
          <mxGeometry x="104" y="238" width="30" height="30" as="geometry" />
        </mxCell>
        <mxCell id="nleeSaPgpGvsYUwv4QzV-78" value="A" style="text;html=1;align=center;verticalAlign=middle;resizable=0;points=[];autosize=1;strokeColor=none;fillColor=none;" parent="1" vertex="1">
          <mxGeometry x="230" y="268" width="30" height="30" as="geometry" />
        </mxCell>
        <mxCell id="nleeSaPgpGvsYUwv4QzV-79" value="A" style="text;html=1;align=center;verticalAlign=middle;resizable=0;points=[];autosize=1;strokeColor=none;fillColor=none;" parent="1" vertex="1">
          <mxGeometry x="230" y="309" width="30" height="30" as="geometry" />
        </mxCell>
        <mxCell id="nleeSaPgpGvsYUwv4QzV-80" value="A" style="text;html=1;align=center;verticalAlign=middle;resizable=0;points=[];autosize=1;strokeColor=none;fillColor=none;" parent="1" vertex="1">
          <mxGeometry x="230" y="348" width="30" height="30" as="geometry" />
        </mxCell>
        <mxCell id="nleeSaPgpGvsYUwv4QzV-81" value="A" style="text;html=1;align=center;verticalAlign=middle;resizable=0;points=[];autosize=1;strokeColor=none;fillColor=none;" parent="1" vertex="1">
          <mxGeometry x="230" y="390" width="30" height="30" as="geometry" />
        </mxCell>
        <mxCell id="nleeSaPgpGvsYUwv4QzV-82" value="A" style="text;html=1;align=center;verticalAlign=middle;resizable=0;points=[];autosize=1;strokeColor=none;fillColor=none;" parent="1" vertex="1">
          <mxGeometry x="228" y="429" width="30" height="30" as="geometry" />
        </mxCell>
        <mxCell id="nleeSaPgpGvsYUwv4QzV-83" value="A" style="text;html=1;align=center;verticalAlign=middle;resizable=0;points=[];autosize=1;strokeColor=none;fillColor=none;" parent="1" vertex="1">
          <mxGeometry x="229" y="470" width="30" height="30" as="geometry" />
        </mxCell>
        <mxCell id="nleeSaPgpGvsYUwv4QzV-84" value="A" style="text;html=1;align=center;verticalAlign=middle;resizable=0;points=[];autosize=1;strokeColor=none;fillColor=none;" parent="1" vertex="1">
          <mxGeometry x="172" y="633" width="30" height="30" as="geometry" />
        </mxCell>
        <mxCell id="nleeSaPgpGvsYUwv4QzV-85" value="A" style="text;html=1;align=center;verticalAlign=middle;resizable=0;points=[];autosize=1;strokeColor=none;fillColor=none;" parent="1" vertex="1">
          <mxGeometry x="173" y="675" width="30" height="30" as="geometry" />
        </mxCell>
        <mxCell id="nleeSaPgpGvsYUwv4QzV-86" value="A == B" style="text;html=1;align=center;verticalAlign=middle;resizable=0;points=[];autosize=1;strokeColor=none;fillColor=none;" parent="1" vertex="1">
          <mxGeometry x="80" y="490" width="60" height="30" as="geometry" />
        </mxCell>
        <mxCell id="nleeSaPgpGvsYUwv4QzV-87" value="A &amp;gt; B" style="text;html=1;align=center;verticalAlign=middle;resizable=0;points=[];autosize=1;strokeColor=none;fillColor=none;" parent="1" vertex="1">
          <mxGeometry x="84" y="571" width="50" height="30" as="geometry" />
        </mxCell>
        <mxCell id="nleeSaPgpGvsYUwv4QzV-88" value="A &amp;lt; B" style="text;html=1;align=center;verticalAlign=middle;resizable=0;points=[];autosize=1;strokeColor=none;fillColor=none;" parent="1" vertex="1">
          <mxGeometry x="83" y="652" width="50" height="30" as="geometry" />
        </mxCell>
        <mxCell id="nleeSaPgpGvsYUwv4QzV-89" value="1" style="text;html=1;align=center;verticalAlign=middle;resizable=0;points=[];autosize=1;strokeColor=none;fillColor=none;" parent="1" vertex="1">
          <mxGeometry x="67" y="464" width="30" height="30" as="geometry" />
        </mxCell>
        <mxCell id="nleeSaPgpGvsYUwv4QzV-91" value="0" style="text;html=1;align=center;verticalAlign=middle;resizable=0;points=[];autosize=1;strokeColor=none;fillColor=none;" parent="1" vertex="1">
          <mxGeometry x="67" y="446" width="30" height="30" as="geometry" />
        </mxCell>
        <mxCell id="nleeSaPgpGvsYUwv4QzV-92" value="0" style="text;html=1;align=center;verticalAlign=middle;resizable=0;points=[];autosize=1;strokeColor=none;fillColor=none;" parent="1" vertex="1">
          <mxGeometry x="68" y="527" width="30" height="30" as="geometry" />
        </mxCell>
        <mxCell id="nleeSaPgpGvsYUwv4QzV-93" value="2" style="text;html=1;align=center;verticalAlign=middle;resizable=0;points=[];autosize=1;strokeColor=none;fillColor=none;" parent="1" vertex="1">
          <mxGeometry x="68" y="545" width="30" height="30" as="geometry" />
        </mxCell>
        <mxCell id="nleeSaPgpGvsYUwv4QzV-94" value="0" style="text;html=1;align=center;verticalAlign=middle;resizable=0;points=[];autosize=1;strokeColor=none;fillColor=none;" parent="1" vertex="1">
          <mxGeometry x="68" y="606" width="30" height="30" as="geometry" />
        </mxCell>
        <mxCell id="nleeSaPgpGvsYUwv4QzV-95" value="3" style="text;html=1;align=center;verticalAlign=middle;resizable=0;points=[];autosize=1;strokeColor=none;fillColor=none;" parent="1" vertex="1">
          <mxGeometry x="68" y="624" width="30" height="30" as="geometry" />
        </mxCell>
        <mxCell id="nleeSaPgpGvsYUwv4QzV-96" value="B != 0" style="text;html=1;align=center;verticalAlign=middle;resizable=0;points=[];autosize=1;strokeColor=none;fillColor=none;" parent="1" vertex="1">
          <mxGeometry x="150" y="273" width="60" height="30" as="geometry" />
        </mxCell>
        <mxCell id="nleeSaPgpGvsYUwv4QzV-97" value="B" style="text;html=1;align=center;verticalAlign=middle;resizable=0;points=[];autosize=1;strokeColor=none;fillColor=none;" parent="1" vertex="1">
          <mxGeometry x="104" y="253" width="30" height="30" as="geometry" />
        </mxCell>
        <mxCell id="nleeSaPgpGvsYUwv4QzV-98" value="B" style="text;html=1;align=center;verticalAlign=middle;resizable=0;points=[];autosize=1;strokeColor=none;fillColor=none;" parent="1" vertex="1">
          <mxGeometry x="224" y="203" width="30" height="30" as="geometry" />
        </mxCell>
        <mxCell id="nleeSaPgpGvsYUwv4QzV-99" value="B" style="text;html=1;align=center;verticalAlign=middle;resizable=0;points=[];autosize=1;strokeColor=none;fillColor=none;" parent="1" vertex="1">
          <mxGeometry x="230" y="280" width="30" height="30" as="geometry" />
        </mxCell>
        <mxCell id="nleeSaPgpGvsYUwv4QzV-100" value="B" style="text;html=1;align=center;verticalAlign=middle;resizable=0;points=[];autosize=1;strokeColor=none;fillColor=none;" parent="1" vertex="1">
          <mxGeometry x="230" y="360" width="30" height="30" as="geometry" />
        </mxCell>
        <mxCell id="nleeSaPgpGvsYUwv4QzV-101" value="B" style="text;html=1;align=center;verticalAlign=middle;resizable=0;points=[];autosize=1;strokeColor=none;fillColor=none;" parent="1" vertex="1">
          <mxGeometry x="229" y="322" width="30" height="30" as="geometry" />
        </mxCell>
        <mxCell id="nleeSaPgpGvsYUwv4QzV-102" value="B" style="text;html=1;align=center;verticalAlign=middle;resizable=0;points=[];autosize=1;strokeColor=none;fillColor=none;" parent="1" vertex="1">
          <mxGeometry x="230" y="402" width="30" height="30" as="geometry" />
        </mxCell>
        <mxCell id="nleeSaPgpGvsYUwv4QzV-103" value="B" style="text;html=1;align=center;verticalAlign=middle;resizable=0;points=[];autosize=1;strokeColor=none;fillColor=none;" parent="1" vertex="1">
          <mxGeometry x="228" y="440" width="30" height="30" as="geometry" />
        </mxCell>
        <mxCell id="nleeSaPgpGvsYUwv4QzV-104" value="B" style="text;html=1;align=center;verticalAlign=middle;resizable=0;points=[];autosize=1;strokeColor=none;fillColor=none;" parent="1" vertex="1">
          <mxGeometry x="229" y="482" width="30" height="30" as="geometry" />
        </mxCell>
        <mxCell id="nleeSaPgpGvsYUwv4QzV-105" value="16*1 MUX" style="text;html=1;align=center;verticalAlign=middle;resizable=0;points=[];autosize=1;strokeColor=none;fillColor=none;" parent="1" vertex="1">
          <mxGeometry x="340" y="395" width="80" height="30" as="geometry" />
        </mxCell>
        <mxCell id="nleeSaPgpGvsYUwv4QzV-106" value="ALU_OUT" style="text;html=1;align=center;verticalAlign=middle;resizable=0;points=[];autosize=1;strokeColor=none;fillColor=none;" parent="1" vertex="1">
          <mxGeometry x="512" y="385" width="80" height="30" as="geometry" />
        </mxCell>
        <mxCell id="nleeSaPgpGvsYUwv4QzV-107" value="Carry_Flag" style="text;html=1;align=center;verticalAlign=middle;resizable=0;points=[];autosize=1;strokeColor=none;fillColor=none;" parent="1" vertex="1">
          <mxGeometry x="600" y="9" width="80" height="30" as="geometry" />
        </mxCell>
        <mxCell id="nleeSaPgpGvsYUwv4QzV-129" value="" style="verticalLabelPosition=bottom;shadow=0;dashed=0;align=center;html=1;verticalAlign=top;shape=mxgraph.electrical.logic_gates.d_type_flip-flop;" parent="1" vertex="1">
          <mxGeometry x="562" y="390" width="100" height="80" as="geometry" />
        </mxCell>
        <mxCell id="nleeSaPgpGvsYUwv4QzV-132" value="clk" style="text;html=1;align=center;verticalAlign=middle;resizable=0;points=[];autosize=1;strokeColor=none;fillColor=none;" parent="1" vertex="1">
          <mxGeometry x="529" y="434" width="33" height="26" as="geometry" />
        </mxCell>
        <mxCell id="Ok6OW7ebjR_WHZtrkIEw-1" value="ALU_OUT_Comb" style="text;html=1;align=center;verticalAlign=middle;resizable=0;points=[];autosize=1;strokeColor=none;fillColor=none;" parent="1" vertex="1">
          <mxGeometry x="410" y="385" width="120" height="30" as="geometry" />
        </mxCell>
        <mxCell id="Ok6OW7ebjR_WHZtrkIEw-2" value="" style="shape=trapezoid;perimeter=trapezoidPerimeter;whiteSpace=wrap;html=1;fixedSize=1;direction=south;size=120;" parent="1" vertex="1">
          <mxGeometry x="758" y="89" width="80" height="680" as="geometry" />
        </mxCell>
        <mxCell id="Ok6OW7ebjR_WHZtrkIEw-3" value="" style="endArrow=none;html=1;rounded=0;" parent="1" edge="1">
          <mxGeometry width="50" height="50" relative="1" as="geometry">
            <mxPoint x="698" y="259" as="sourcePoint" />
            <mxPoint x="758" y="259" as="targetPoint" />
          </mxGeometry>
        </mxCell>
        <mxCell id="Ok6OW7ebjR_WHZtrkIEw-4" value="" style="endArrow=none;html=1;rounded=0;" parent="1" edge="1">
          <mxGeometry width="50" height="50" relative="1" as="geometry">
            <mxPoint x="698" y="299" as="sourcePoint" />
            <mxPoint x="758" y="299" as="targetPoint" />
          </mxGeometry>
        </mxCell>
        <mxCell id="Ok6OW7ebjR_WHZtrkIEw-5" value="" style="endArrow=none;html=1;rounded=0;" parent="1" edge="1">
          <mxGeometry width="50" height="50" relative="1" as="geometry">
            <mxPoint x="698" y="339" as="sourcePoint" />
            <mxPoint x="758" y="339" as="targetPoint" />
          </mxGeometry>
        </mxCell>
        <mxCell id="Ok6OW7ebjR_WHZtrkIEw-6" value="" style="endArrow=none;html=1;rounded=0;" parent="1" edge="1">
          <mxGeometry width="50" height="50" relative="1" as="geometry">
            <mxPoint x="698" y="379" as="sourcePoint" />
            <mxPoint x="758" y="379" as="targetPoint" />
          </mxGeometry>
        </mxCell>
        <mxCell id="Ok6OW7ebjR_WHZtrkIEw-7" value="" style="endArrow=none;html=1;rounded=0;" parent="1" edge="1">
          <mxGeometry width="50" height="50" relative="1" as="geometry">
            <mxPoint x="698" y="419" as="sourcePoint" />
            <mxPoint x="758" y="419" as="targetPoint" />
          </mxGeometry>
        </mxCell>
        <mxCell id="Ok6OW7ebjR_WHZtrkIEw-8" value="" style="endArrow=none;html=1;rounded=0;" parent="1" edge="1">
          <mxGeometry width="50" height="50" relative="1" as="geometry">
            <mxPoint x="698" y="459" as="sourcePoint" />
            <mxPoint x="758" y="459" as="targetPoint" />
          </mxGeometry>
        </mxCell>
        <mxCell id="Ok6OW7ebjR_WHZtrkIEw-9" value="" style="endArrow=none;html=1;rounded=0;" parent="1" edge="1">
          <mxGeometry width="50" height="50" relative="1" as="geometry">
            <mxPoint x="698" y="499" as="sourcePoint" />
            <mxPoint x="758" y="499" as="targetPoint" />
          </mxGeometry>
        </mxCell>
        <mxCell id="Ok6OW7ebjR_WHZtrkIEw-10" value="" style="endArrow=none;html=1;rounded=0;" parent="1" edge="1">
          <mxGeometry width="50" height="50" relative="1" as="geometry">
            <mxPoint x="698" y="539" as="sourcePoint" />
            <mxPoint x="758" y="539" as="targetPoint" />
          </mxGeometry>
        </mxCell>
        <mxCell id="Ok6OW7ebjR_WHZtrkIEw-11" value="" style="endArrow=none;html=1;rounded=0;" parent="1" edge="1">
          <mxGeometry width="50" height="50" relative="1" as="geometry">
            <mxPoint x="698" y="699" as="sourcePoint" />
            <mxPoint x="758" y="699" as="targetPoint" />
          </mxGeometry>
        </mxCell>
        <mxCell id="Ok6OW7ebjR_WHZtrkIEw-12" value="" style="endArrow=none;html=1;rounded=0;" parent="1" edge="1">
          <mxGeometry width="50" height="50" relative="1" as="geometry">
            <mxPoint x="698" y="659" as="sourcePoint" />
            <mxPoint x="758" y="659" as="targetPoint" />
          </mxGeometry>
        </mxCell>
        <mxCell id="Ok6OW7ebjR_WHZtrkIEw-13" value="" style="endArrow=none;html=1;rounded=0;" parent="1" edge="1">
          <mxGeometry width="50" height="50" relative="1" as="geometry">
            <mxPoint x="698" y="619" as="sourcePoint" />
            <mxPoint x="758" y="619" as="targetPoint" />
          </mxGeometry>
        </mxCell>
        <mxCell id="Ok6OW7ebjR_WHZtrkIEw-14" value="" style="endArrow=none;html=1;rounded=0;" parent="1" edge="1">
          <mxGeometry width="50" height="50" relative="1" as="geometry">
            <mxPoint x="698" y="579" as="sourcePoint" />
            <mxPoint x="758" y="579" as="targetPoint" />
          </mxGeometry>
        </mxCell>
        <mxCell id="Ok6OW7ebjR_WHZtrkIEw-15" value="" style="endArrow=none;html=1;rounded=0;" parent="1" edge="1">
          <mxGeometry width="50" height="50" relative="1" as="geometry">
            <mxPoint x="698" y="139" as="sourcePoint" />
            <mxPoint x="758" y="139" as="targetPoint" />
          </mxGeometry>
        </mxCell>
        <mxCell id="Ok6OW7ebjR_WHZtrkIEw-16" value="" style="endArrow=none;html=1;rounded=0;" parent="1" edge="1">
          <mxGeometry width="50" height="50" relative="1" as="geometry">
            <mxPoint x="698" y="179" as="sourcePoint" />
            <mxPoint x="758" y="179" as="targetPoint" />
          </mxGeometry>
        </mxCell>
        <mxCell id="Ok6OW7ebjR_WHZtrkIEw-17" value="" style="endArrow=none;html=1;rounded=0;" parent="1" edge="1">
          <mxGeometry width="50" height="50" relative="1" as="geometry">
            <mxPoint x="698" y="219" as="sourcePoint" />
            <mxPoint x="758" y="219" as="targetPoint" />
          </mxGeometry>
        </mxCell>
        <mxCell id="Ok6OW7ebjR_WHZtrkIEw-18" value="" style="endArrow=none;html=1;rounded=0;" parent="1" edge="1">
          <mxGeometry width="50" height="50" relative="1" as="geometry">
            <mxPoint x="698" y="739" as="sourcePoint" />
            <mxPoint x="758" y="739" as="targetPoint" />
          </mxGeometry>
        </mxCell>
        <mxCell id="Ok6OW7ebjR_WHZtrkIEw-19" value="" style="endArrow=none;html=1;rounded=0;" parent="1" edge="1">
          <mxGeometry width="50" height="50" relative="1" as="geometry">
            <mxPoint x="838" y="419" as="sourcePoint" />
            <mxPoint x="945" y="419" as="targetPoint" />
          </mxGeometry>
        </mxCell>
        <mxCell id="Ok6OW7ebjR_WHZtrkIEw-90" value="16*1 MUX" style="text;html=1;align=center;verticalAlign=middle;resizable=0;points=[];autosize=1;strokeColor=none;fillColor=none;" parent="1" vertex="1">
          <mxGeometry x="758" y="404" width="80" height="30" as="geometry" />
        </mxCell>
        <mxCell id="Ok6OW7ebjR_WHZtrkIEw-96" value="Arith_Flag" style="text;html=1;align=center;verticalAlign=middle;resizable=0;points=[];autosize=1;strokeColor=none;fillColor=none;" parent="1" vertex="1">
          <mxGeometry x="845" y="391" width="80" height="30" as="geometry" />
        </mxCell>
        <mxCell id="Ok6OW7ebjR_WHZtrkIEw-97" value="1" style="text;html=1;align=center;verticalAlign=middle;resizable=0;points=[];autosize=1;strokeColor=none;fillColor=none;" parent="1" vertex="1">
          <mxGeometry x="685" y="114" width="30" height="30" as="geometry" />
        </mxCell>
        <mxCell id="Ok6OW7ebjR_WHZtrkIEw-98" value="1" style="text;html=1;align=center;verticalAlign=middle;resizable=0;points=[];autosize=1;strokeColor=none;fillColor=none;" parent="1" vertex="1">
          <mxGeometry x="685" y="154" width="30" height="30" as="geometry" />
        </mxCell>
        <mxCell id="Ok6OW7ebjR_WHZtrkIEw-101" value="1" style="text;html=1;align=center;verticalAlign=middle;resizable=0;points=[];autosize=1;strokeColor=none;fillColor=none;" parent="1" vertex="1">
          <mxGeometry x="685" y="189" width="30" height="30" as="geometry" />
        </mxCell>
        <mxCell id="Ok6OW7ebjR_WHZtrkIEw-102" value="1" style="text;html=1;align=center;verticalAlign=middle;resizable=0;points=[];autosize=1;strokeColor=none;fillColor=none;" parent="1" vertex="1">
          <mxGeometry x="685" y="232" width="30" height="30" as="geometry" />
        </mxCell>
        <mxCell id="Ok6OW7ebjR_WHZtrkIEw-103" value="0" style="text;html=1;align=center;verticalAlign=middle;resizable=0;points=[];autosize=1;strokeColor=none;fillColor=none;" parent="1" vertex="1">
          <mxGeometry x="685" y="272" width="30" height="30" as="geometry" />
        </mxCell>
        <mxCell id="Ok6OW7ebjR_WHZtrkIEw-105" value="0" style="text;html=1;align=center;verticalAlign=middle;resizable=0;points=[];autosize=1;strokeColor=none;fillColor=none;" parent="1" vertex="1">
          <mxGeometry x="685" y="311" width="30" height="30" as="geometry" />
        </mxCell>
        <mxCell id="Ok6OW7ebjR_WHZtrkIEw-106" value="0" style="text;html=1;align=center;verticalAlign=middle;resizable=0;points=[];autosize=1;strokeColor=none;fillColor=none;" parent="1" vertex="1">
          <mxGeometry x="685" y="354" width="30" height="30" as="geometry" />
        </mxCell>
        <mxCell id="Ok6OW7ebjR_WHZtrkIEw-107" value="0" style="text;html=1;align=center;verticalAlign=middle;resizable=0;points=[];autosize=1;strokeColor=none;fillColor=none;" parent="1" vertex="1">
          <mxGeometry x="685" y="396" width="30" height="30" as="geometry" />
        </mxCell>
        <mxCell id="Ok6OW7ebjR_WHZtrkIEw-108" value="0" style="text;html=1;align=center;verticalAlign=middle;resizable=0;points=[];autosize=1;strokeColor=none;fillColor=none;" parent="1" vertex="1">
          <mxGeometry x="685" y="434" width="30" height="30" as="geometry" />
        </mxCell>
        <mxCell id="Ok6OW7ebjR_WHZtrkIEw-109" value="0" style="text;html=1;align=center;verticalAlign=middle;resizable=0;points=[];autosize=1;strokeColor=none;fillColor=none;" parent="1" vertex="1">
          <mxGeometry x="685" y="472" width="30" height="30" as="geometry" />
        </mxCell>
        <mxCell id="Ok6OW7ebjR_WHZtrkIEw-110" value="0" style="text;html=1;align=center;verticalAlign=middle;resizable=0;points=[];autosize=1;strokeColor=none;fillColor=none;" parent="1" vertex="1">
          <mxGeometry x="685" y="516" width="30" height="30" as="geometry" />
        </mxCell>
        <mxCell id="Ok6OW7ebjR_WHZtrkIEw-111" value="0" style="text;html=1;align=center;verticalAlign=middle;resizable=0;points=[];autosize=1;strokeColor=none;fillColor=none;" parent="1" vertex="1">
          <mxGeometry x="685" y="554" width="30" height="30" as="geometry" />
        </mxCell>
        <mxCell id="Ok6OW7ebjR_WHZtrkIEw-112" value="0" style="text;html=1;align=center;verticalAlign=middle;resizable=0;points=[];autosize=1;strokeColor=none;fillColor=none;" parent="1" vertex="1">
          <mxGeometry x="685" y="595" width="30" height="30" as="geometry" />
        </mxCell>
        <mxCell id="Ok6OW7ebjR_WHZtrkIEw-113" value="0" style="text;html=1;align=center;verticalAlign=middle;resizable=0;points=[];autosize=1;strokeColor=none;fillColor=none;" parent="1" vertex="1">
          <mxGeometry x="685" y="634" width="30" height="30" as="geometry" />
        </mxCell>
        <mxCell id="Ok6OW7ebjR_WHZtrkIEw-114" value="0" style="text;html=1;align=center;verticalAlign=middle;resizable=0;points=[];autosize=1;strokeColor=none;fillColor=none;" parent="1" vertex="1">
          <mxGeometry x="685" y="673" width="30" height="30" as="geometry" />
        </mxCell>
        <mxCell id="Ok6OW7ebjR_WHZtrkIEw-115" value="0" style="text;html=1;align=center;verticalAlign=middle;resizable=0;points=[];autosize=1;strokeColor=none;fillColor=none;" parent="1" vertex="1">
          <mxGeometry x="685" y="712" width="30" height="30" as="geometry" />
        </mxCell>
        <mxCell id="Ok6OW7ebjR_WHZtrkIEw-116" value="" style="shape=trapezoid;perimeter=trapezoidPerimeter;whiteSpace=wrap;html=1;fixedSize=1;direction=south;size=120;" parent="1" vertex="1">
          <mxGeometry x="952" y="-290" width="80" height="680" as="geometry" />
        </mxCell>
        <mxCell id="Ok6OW7ebjR_WHZtrkIEw-117" value="" style="endArrow=none;html=1;rounded=0;" parent="1" edge="1">
          <mxGeometry width="50" height="50" relative="1" as="geometry">
            <mxPoint x="892" y="-120" as="sourcePoint" />
            <mxPoint x="952" y="-120" as="targetPoint" />
          </mxGeometry>
        </mxCell>
        <mxCell id="Ok6OW7ebjR_WHZtrkIEw-118" value="" style="endArrow=none;html=1;rounded=0;" parent="1" edge="1">
          <mxGeometry width="50" height="50" relative="1" as="geometry">
            <mxPoint x="892" y="-80" as="sourcePoint" />
            <mxPoint x="952" y="-80" as="targetPoint" />
          </mxGeometry>
        </mxCell>
        <mxCell id="Ok6OW7ebjR_WHZtrkIEw-119" value="" style="endArrow=none;html=1;rounded=0;" parent="1" edge="1">
          <mxGeometry width="50" height="50" relative="1" as="geometry">
            <mxPoint x="892" y="-40" as="sourcePoint" />
            <mxPoint x="952" y="-40" as="targetPoint" />
          </mxGeometry>
        </mxCell>
        <mxCell id="Ok6OW7ebjR_WHZtrkIEw-120" value="" style="endArrow=none;html=1;rounded=0;" parent="1" edge="1">
          <mxGeometry width="50" height="50" relative="1" as="geometry">
            <mxPoint x="892" as="sourcePoint" />
            <mxPoint x="952" as="targetPoint" />
          </mxGeometry>
        </mxCell>
        <mxCell id="Ok6OW7ebjR_WHZtrkIEw-121" value="" style="endArrow=none;html=1;rounded=0;" parent="1" edge="1">
          <mxGeometry width="50" height="50" relative="1" as="geometry">
            <mxPoint x="892" y="40" as="sourcePoint" />
            <mxPoint x="952" y="40" as="targetPoint" />
          </mxGeometry>
        </mxCell>
        <mxCell id="Ok6OW7ebjR_WHZtrkIEw-122" value="" style="endArrow=none;html=1;rounded=0;" parent="1" edge="1">
          <mxGeometry width="50" height="50" relative="1" as="geometry">
            <mxPoint x="892" y="80" as="sourcePoint" />
            <mxPoint x="952" y="80" as="targetPoint" />
          </mxGeometry>
        </mxCell>
        <mxCell id="Ok6OW7ebjR_WHZtrkIEw-123" value="" style="endArrow=none;html=1;rounded=0;" parent="1" edge="1">
          <mxGeometry width="50" height="50" relative="1" as="geometry">
            <mxPoint x="892" y="120" as="sourcePoint" />
            <mxPoint x="952" y="120" as="targetPoint" />
          </mxGeometry>
        </mxCell>
        <mxCell id="Ok6OW7ebjR_WHZtrkIEw-124" value="" style="endArrow=none;html=1;rounded=0;" parent="1" edge="1">
          <mxGeometry width="50" height="50" relative="1" as="geometry">
            <mxPoint x="892" y="160" as="sourcePoint" />
            <mxPoint x="952" y="160" as="targetPoint" />
          </mxGeometry>
        </mxCell>
        <mxCell id="Ok6OW7ebjR_WHZtrkIEw-125" value="" style="endArrow=none;html=1;rounded=0;" parent="1" edge="1">
          <mxGeometry width="50" height="50" relative="1" as="geometry">
            <mxPoint x="892" y="320" as="sourcePoint" />
            <mxPoint x="952" y="320" as="targetPoint" />
          </mxGeometry>
        </mxCell>
        <mxCell id="Ok6OW7ebjR_WHZtrkIEw-126" value="" style="endArrow=none;html=1;rounded=0;" parent="1" edge="1">
          <mxGeometry width="50" height="50" relative="1" as="geometry">
            <mxPoint x="892" y="280" as="sourcePoint" />
            <mxPoint x="952" y="280" as="targetPoint" />
          </mxGeometry>
        </mxCell>
        <mxCell id="Ok6OW7ebjR_WHZtrkIEw-127" value="" style="endArrow=none;html=1;rounded=0;" parent="1" edge="1">
          <mxGeometry width="50" height="50" relative="1" as="geometry">
            <mxPoint x="892" y="240" as="sourcePoint" />
            <mxPoint x="952" y="240" as="targetPoint" />
          </mxGeometry>
        </mxCell>
        <mxCell id="Ok6OW7ebjR_WHZtrkIEw-128" value="" style="endArrow=none;html=1;rounded=0;" parent="1" edge="1">
          <mxGeometry width="50" height="50" relative="1" as="geometry">
            <mxPoint x="892" y="200" as="sourcePoint" />
            <mxPoint x="952" y="200" as="targetPoint" />
          </mxGeometry>
        </mxCell>
        <mxCell id="Ok6OW7ebjR_WHZtrkIEw-129" value="" style="endArrow=none;html=1;rounded=0;" parent="1" edge="1">
          <mxGeometry width="50" height="50" relative="1" as="geometry">
            <mxPoint x="892" y="-240" as="sourcePoint" />
            <mxPoint x="952" y="-240" as="targetPoint" />
          </mxGeometry>
        </mxCell>
        <mxCell id="Ok6OW7ebjR_WHZtrkIEw-130" value="" style="endArrow=none;html=1;rounded=0;" parent="1" edge="1">
          <mxGeometry width="50" height="50" relative="1" as="geometry">
            <mxPoint x="892" y="-200" as="sourcePoint" />
            <mxPoint x="952" y="-200" as="targetPoint" />
          </mxGeometry>
        </mxCell>
        <mxCell id="Ok6OW7ebjR_WHZtrkIEw-131" value="" style="endArrow=none;html=1;rounded=0;" parent="1" edge="1">
          <mxGeometry width="50" height="50" relative="1" as="geometry">
            <mxPoint x="892" y="-160" as="sourcePoint" />
            <mxPoint x="952" y="-160" as="targetPoint" />
          </mxGeometry>
        </mxCell>
        <mxCell id="Ok6OW7ebjR_WHZtrkIEw-132" value="" style="endArrow=none;html=1;rounded=0;" parent="1" edge="1">
          <mxGeometry width="50" height="50" relative="1" as="geometry">
            <mxPoint x="892" y="360" as="sourcePoint" />
            <mxPoint x="952" y="360" as="targetPoint" />
          </mxGeometry>
        </mxCell>
        <mxCell id="Ok6OW7ebjR_WHZtrkIEw-133" value="" style="endArrow=none;html=1;rounded=0;" parent="1" edge="1">
          <mxGeometry width="50" height="50" relative="1" as="geometry">
            <mxPoint x="1032" y="40" as="sourcePoint" />
            <mxPoint x="1139" y="40" as="targetPoint" />
          </mxGeometry>
        </mxCell>
        <mxCell id="Ok6OW7ebjR_WHZtrkIEw-134" value="16*1 MUX" style="text;html=1;align=center;verticalAlign=middle;resizable=0;points=[];autosize=1;strokeColor=none;fillColor=none;" parent="1" vertex="1">
          <mxGeometry x="952" y="25" width="80" height="30" as="geometry" />
        </mxCell>
        <mxCell id="Ok6OW7ebjR_WHZtrkIEw-135" value="Logic_Flag" style="text;html=1;align=center;verticalAlign=middle;resizable=0;points=[];autosize=1;strokeColor=none;fillColor=none;" parent="1" vertex="1">
          <mxGeometry x="1039" y="12" width="80" height="30" as="geometry" />
        </mxCell>
        <mxCell id="Ok6OW7ebjR_WHZtrkIEw-136" value="0" style="text;html=1;align=center;verticalAlign=middle;resizable=0;points=[];autosize=1;strokeColor=none;fillColor=none;" parent="1" vertex="1">
          <mxGeometry x="879" y="-265" width="30" height="30" as="geometry" />
        </mxCell>
        <mxCell id="Ok6OW7ebjR_WHZtrkIEw-137" value="0" style="text;html=1;align=center;verticalAlign=middle;resizable=0;points=[];autosize=1;strokeColor=none;fillColor=none;" parent="1" vertex="1">
          <mxGeometry x="879" y="-225" width="30" height="30" as="geometry" />
        </mxCell>
        <mxCell id="Ok6OW7ebjR_WHZtrkIEw-138" value="0" style="text;html=1;align=center;verticalAlign=middle;resizable=0;points=[];autosize=1;strokeColor=none;fillColor=none;" parent="1" vertex="1">
          <mxGeometry x="879" y="-190" width="30" height="30" as="geometry" />
        </mxCell>
        <mxCell id="Ok6OW7ebjR_WHZtrkIEw-139" value="0" style="text;html=1;align=center;verticalAlign=middle;resizable=0;points=[];autosize=1;strokeColor=none;fillColor=none;" parent="1" vertex="1">
          <mxGeometry x="879" y="-147" width="30" height="30" as="geometry" />
        </mxCell>
        <mxCell id="Ok6OW7ebjR_WHZtrkIEw-140" value="1" style="text;html=1;align=center;verticalAlign=middle;resizable=0;points=[];autosize=1;strokeColor=none;fillColor=none;" parent="1" vertex="1">
          <mxGeometry x="879" y="-107" width="30" height="30" as="geometry" />
        </mxCell>
        <mxCell id="Ok6OW7ebjR_WHZtrkIEw-141" value="1" style="text;html=1;align=center;verticalAlign=middle;resizable=0;points=[];autosize=1;strokeColor=none;fillColor=none;" parent="1" vertex="1">
          <mxGeometry x="879" y="-68" width="30" height="30" as="geometry" />
        </mxCell>
        <mxCell id="Ok6OW7ebjR_WHZtrkIEw-142" value="1" style="text;html=1;align=center;verticalAlign=middle;resizable=0;points=[];autosize=1;strokeColor=none;fillColor=none;" parent="1" vertex="1">
          <mxGeometry x="879" y="-25" width="30" height="30" as="geometry" />
        </mxCell>
        <mxCell id="Ok6OW7ebjR_WHZtrkIEw-143" value="1" style="text;html=1;align=center;verticalAlign=middle;resizable=0;points=[];autosize=1;strokeColor=none;fillColor=none;" parent="1" vertex="1">
          <mxGeometry x="879" y="17" width="30" height="30" as="geometry" />
        </mxCell>
        <mxCell id="Ok6OW7ebjR_WHZtrkIEw-144" value="1" style="text;html=1;align=center;verticalAlign=middle;resizable=0;points=[];autosize=1;strokeColor=none;fillColor=none;" parent="1" vertex="1">
          <mxGeometry x="879" y="55" width="30" height="30" as="geometry" />
        </mxCell>
        <mxCell id="Ok6OW7ebjR_WHZtrkIEw-145" value="1" style="text;html=1;align=center;verticalAlign=middle;resizable=0;points=[];autosize=1;strokeColor=none;fillColor=none;" parent="1" vertex="1">
          <mxGeometry x="879" y="93" width="30" height="30" as="geometry" />
        </mxCell>
        <mxCell id="Ok6OW7ebjR_WHZtrkIEw-146" value="0" style="text;html=1;align=center;verticalAlign=middle;resizable=0;points=[];autosize=1;strokeColor=none;fillColor=none;" parent="1" vertex="1">
          <mxGeometry x="879" y="137" width="30" height="30" as="geometry" />
        </mxCell>
        <mxCell id="Ok6OW7ebjR_WHZtrkIEw-147" value="0" style="text;html=1;align=center;verticalAlign=middle;resizable=0;points=[];autosize=1;strokeColor=none;fillColor=none;" parent="1" vertex="1">
          <mxGeometry x="879" y="175" width="30" height="30" as="geometry" />
        </mxCell>
        <mxCell id="Ok6OW7ebjR_WHZtrkIEw-148" value="0" style="text;html=1;align=center;verticalAlign=middle;resizable=0;points=[];autosize=1;strokeColor=none;fillColor=none;" parent="1" vertex="1">
          <mxGeometry x="879" y="216" width="30" height="30" as="geometry" />
        </mxCell>
        <mxCell id="Ok6OW7ebjR_WHZtrkIEw-149" value="0" style="text;html=1;align=center;verticalAlign=middle;resizable=0;points=[];autosize=1;strokeColor=none;fillColor=none;" parent="1" vertex="1">
          <mxGeometry x="879" y="255" width="30" height="30" as="geometry" />
        </mxCell>
        <mxCell id="Ok6OW7ebjR_WHZtrkIEw-150" value="0" style="text;html=1;align=center;verticalAlign=middle;resizable=0;points=[];autosize=1;strokeColor=none;fillColor=none;" parent="1" vertex="1">
          <mxGeometry x="879" y="294" width="30" height="30" as="geometry" />
        </mxCell>
        <mxCell id="Ok6OW7ebjR_WHZtrkIEw-151" value="0" style="text;html=1;align=center;verticalAlign=middle;resizable=0;points=[];autosize=1;strokeColor=none;fillColor=none;" parent="1" vertex="1">
          <mxGeometry x="879" y="333" width="30" height="30" as="geometry" />
        </mxCell>
        <mxCell id="Ok6OW7ebjR_WHZtrkIEw-152" value="" style="shape=trapezoid;perimeter=trapezoidPerimeter;whiteSpace=wrap;html=1;fixedSize=1;direction=south;size=120;" parent="1" vertex="1">
          <mxGeometry x="1134" y="77" width="80" height="680" as="geometry" />
        </mxCell>
        <mxCell id="Ok6OW7ebjR_WHZtrkIEw-153" value="" style="endArrow=none;html=1;rounded=0;" parent="1" edge="1">
          <mxGeometry width="50" height="50" relative="1" as="geometry">
            <mxPoint x="1074" y="259" as="sourcePoint" />
            <mxPoint x="1134" y="259" as="targetPoint" />
          </mxGeometry>
        </mxCell>
        <mxCell id="Ok6OW7ebjR_WHZtrkIEw-154" value="" style="endArrow=none;html=1;rounded=0;" parent="1" edge="1">
          <mxGeometry width="50" height="50" relative="1" as="geometry">
            <mxPoint x="1074" y="299" as="sourcePoint" />
            <mxPoint x="1134" y="299" as="targetPoint" />
          </mxGeometry>
        </mxCell>
        <mxCell id="Ok6OW7ebjR_WHZtrkIEw-155" value="" style="endArrow=none;html=1;rounded=0;" parent="1" edge="1">
          <mxGeometry width="50" height="50" relative="1" as="geometry">
            <mxPoint x="1074" y="339" as="sourcePoint" />
            <mxPoint x="1134" y="339" as="targetPoint" />
          </mxGeometry>
        </mxCell>
        <mxCell id="Ok6OW7ebjR_WHZtrkIEw-156" value="" style="endArrow=none;html=1;rounded=0;" parent="1" edge="1">
          <mxGeometry width="50" height="50" relative="1" as="geometry">
            <mxPoint x="1074" y="379" as="sourcePoint" />
            <mxPoint x="1134" y="379" as="targetPoint" />
          </mxGeometry>
        </mxCell>
        <mxCell id="Ok6OW7ebjR_WHZtrkIEw-157" value="" style="endArrow=none;html=1;rounded=0;" parent="1" edge="1">
          <mxGeometry width="50" height="50" relative="1" as="geometry">
            <mxPoint x="1074" y="419" as="sourcePoint" />
            <mxPoint x="1134" y="419" as="targetPoint" />
          </mxGeometry>
        </mxCell>
        <mxCell id="Ok6OW7ebjR_WHZtrkIEw-158" value="" style="endArrow=none;html=1;rounded=0;" parent="1" edge="1">
          <mxGeometry width="50" height="50" relative="1" as="geometry">
            <mxPoint x="1074" y="459" as="sourcePoint" />
            <mxPoint x="1134" y="459" as="targetPoint" />
          </mxGeometry>
        </mxCell>
        <mxCell id="Ok6OW7ebjR_WHZtrkIEw-159" value="" style="endArrow=none;html=1;rounded=0;" parent="1" edge="1">
          <mxGeometry width="50" height="50" relative="1" as="geometry">
            <mxPoint x="1074" y="499" as="sourcePoint" />
            <mxPoint x="1134" y="499" as="targetPoint" />
          </mxGeometry>
        </mxCell>
        <mxCell id="Ok6OW7ebjR_WHZtrkIEw-160" value="" style="endArrow=none;html=1;rounded=0;" parent="1" edge="1">
          <mxGeometry width="50" height="50" relative="1" as="geometry">
            <mxPoint x="1074" y="539" as="sourcePoint" />
            <mxPoint x="1134" y="539" as="targetPoint" />
          </mxGeometry>
        </mxCell>
        <mxCell id="Ok6OW7ebjR_WHZtrkIEw-161" value="" style="endArrow=none;html=1;rounded=0;" parent="1" edge="1">
          <mxGeometry width="50" height="50" relative="1" as="geometry">
            <mxPoint x="1074" y="699" as="sourcePoint" />
            <mxPoint x="1134" y="699" as="targetPoint" />
          </mxGeometry>
        </mxCell>
        <mxCell id="Ok6OW7ebjR_WHZtrkIEw-162" value="" style="endArrow=none;html=1;rounded=0;" parent="1" edge="1">
          <mxGeometry width="50" height="50" relative="1" as="geometry">
            <mxPoint x="1074" y="659" as="sourcePoint" />
            <mxPoint x="1134" y="659" as="targetPoint" />
          </mxGeometry>
        </mxCell>
        <mxCell id="Ok6OW7ebjR_WHZtrkIEw-163" value="" style="endArrow=none;html=1;rounded=0;" parent="1" edge="1">
          <mxGeometry width="50" height="50" relative="1" as="geometry">
            <mxPoint x="1074" y="619" as="sourcePoint" />
            <mxPoint x="1134" y="619" as="targetPoint" />
          </mxGeometry>
        </mxCell>
        <mxCell id="Ok6OW7ebjR_WHZtrkIEw-164" value="" style="endArrow=none;html=1;rounded=0;" parent="1" edge="1">
          <mxGeometry width="50" height="50" relative="1" as="geometry">
            <mxPoint x="1074" y="579" as="sourcePoint" />
            <mxPoint x="1134" y="579" as="targetPoint" />
          </mxGeometry>
        </mxCell>
        <mxCell id="Ok6OW7ebjR_WHZtrkIEw-165" value="" style="endArrow=none;html=1;rounded=0;" parent="1" edge="1">
          <mxGeometry width="50" height="50" relative="1" as="geometry">
            <mxPoint x="1074" y="139" as="sourcePoint" />
            <mxPoint x="1134" y="139" as="targetPoint" />
          </mxGeometry>
        </mxCell>
        <mxCell id="Ok6OW7ebjR_WHZtrkIEw-166" value="" style="endArrow=none;html=1;rounded=0;" parent="1" edge="1">
          <mxGeometry width="50" height="50" relative="1" as="geometry">
            <mxPoint x="1074" y="179" as="sourcePoint" />
            <mxPoint x="1134" y="179" as="targetPoint" />
          </mxGeometry>
        </mxCell>
        <mxCell id="Ok6OW7ebjR_WHZtrkIEw-167" value="" style="endArrow=none;html=1;rounded=0;" parent="1" edge="1">
          <mxGeometry width="50" height="50" relative="1" as="geometry">
            <mxPoint x="1074" y="219" as="sourcePoint" />
            <mxPoint x="1134" y="219" as="targetPoint" />
          </mxGeometry>
        </mxCell>
        <mxCell id="Ok6OW7ebjR_WHZtrkIEw-168" value="" style="endArrow=none;html=1;rounded=0;" parent="1" edge="1">
          <mxGeometry width="50" height="50" relative="1" as="geometry">
            <mxPoint x="1074" y="739" as="sourcePoint" />
            <mxPoint x="1134" y="739" as="targetPoint" />
          </mxGeometry>
        </mxCell>
        <mxCell id="Ok6OW7ebjR_WHZtrkIEw-169" value="" style="endArrow=none;html=1;rounded=0;" parent="1" edge="1">
          <mxGeometry width="50" height="50" relative="1" as="geometry">
            <mxPoint x="1214" y="419" as="sourcePoint" />
            <mxPoint x="1321" y="419" as="targetPoint" />
          </mxGeometry>
        </mxCell>
        <mxCell id="Ok6OW7ebjR_WHZtrkIEw-170" value="16*1 MUX" style="text;html=1;align=center;verticalAlign=middle;resizable=0;points=[];autosize=1;strokeColor=none;fillColor=none;" parent="1" vertex="1">
          <mxGeometry x="1134" y="404" width="80" height="30" as="geometry" />
        </mxCell>
        <mxCell id="Ok6OW7ebjR_WHZtrkIEw-171" value="CMP_Flag" style="text;html=1;align=center;verticalAlign=middle;resizable=0;points=[];autosize=1;strokeColor=none;fillColor=none;" parent="1" vertex="1">
          <mxGeometry x="1221" y="391" width="80" height="30" as="geometry" />
        </mxCell>
        <mxCell id="Ok6OW7ebjR_WHZtrkIEw-172" value="0" style="text;html=1;align=center;verticalAlign=middle;resizable=0;points=[];autosize=1;strokeColor=none;fillColor=none;" parent="1" vertex="1">
          <mxGeometry x="1061" y="114" width="30" height="30" as="geometry" />
        </mxCell>
        <mxCell id="Ok6OW7ebjR_WHZtrkIEw-173" value="0" style="text;html=1;align=center;verticalAlign=middle;resizable=0;points=[];autosize=1;strokeColor=none;fillColor=none;" parent="1" vertex="1">
          <mxGeometry x="1061" y="154" width="30" height="30" as="geometry" />
        </mxCell>
        <mxCell id="Ok6OW7ebjR_WHZtrkIEw-174" value="0" style="text;html=1;align=center;verticalAlign=middle;resizable=0;points=[];autosize=1;strokeColor=none;fillColor=none;" parent="1" vertex="1">
          <mxGeometry x="1061" y="189" width="30" height="30" as="geometry" />
        </mxCell>
        <mxCell id="Ok6OW7ebjR_WHZtrkIEw-175" value="0" style="text;html=1;align=center;verticalAlign=middle;resizable=0;points=[];autosize=1;strokeColor=none;fillColor=none;" parent="1" vertex="1">
          <mxGeometry x="1061" y="232" width="30" height="30" as="geometry" />
        </mxCell>
        <mxCell id="Ok6OW7ebjR_WHZtrkIEw-176" value="0" style="text;html=1;align=center;verticalAlign=middle;resizable=0;points=[];autosize=1;strokeColor=none;fillColor=none;" parent="1" vertex="1">
          <mxGeometry x="1061" y="272" width="30" height="30" as="geometry" />
        </mxCell>
        <mxCell id="Ok6OW7ebjR_WHZtrkIEw-177" value="0" style="text;html=1;align=center;verticalAlign=middle;resizable=0;points=[];autosize=1;strokeColor=none;fillColor=none;" parent="1" vertex="1">
          <mxGeometry x="1061" y="311" width="30" height="30" as="geometry" />
        </mxCell>
        <mxCell id="Ok6OW7ebjR_WHZtrkIEw-178" value="0" style="text;html=1;align=center;verticalAlign=middle;resizable=0;points=[];autosize=1;strokeColor=none;fillColor=none;" parent="1" vertex="1">
          <mxGeometry x="1061" y="354" width="30" height="30" as="geometry" />
        </mxCell>
        <mxCell id="Ok6OW7ebjR_WHZtrkIEw-179" value="0" style="text;html=1;align=center;verticalAlign=middle;resizable=0;points=[];autosize=1;strokeColor=none;fillColor=none;" parent="1" vertex="1">
          <mxGeometry x="1061" y="396" width="30" height="30" as="geometry" />
        </mxCell>
        <mxCell id="Ok6OW7ebjR_WHZtrkIEw-180" value="0" style="text;html=1;align=center;verticalAlign=middle;resizable=0;points=[];autosize=1;strokeColor=none;fillColor=none;" parent="1" vertex="1">
          <mxGeometry x="1061" y="434" width="30" height="30" as="geometry" />
        </mxCell>
        <mxCell id="Ok6OW7ebjR_WHZtrkIEw-181" value="0" style="text;html=1;align=center;verticalAlign=middle;resizable=0;points=[];autosize=1;strokeColor=none;fillColor=none;" parent="1" vertex="1">
          <mxGeometry x="1061" y="472" width="30" height="30" as="geometry" />
        </mxCell>
        <mxCell id="Ok6OW7ebjR_WHZtrkIEw-182" value="1" style="text;html=1;align=center;verticalAlign=middle;resizable=0;points=[];autosize=1;strokeColor=none;fillColor=none;" parent="1" vertex="1">
          <mxGeometry x="1061" y="516" width="30" height="30" as="geometry" />
        </mxCell>
        <mxCell id="Ok6OW7ebjR_WHZtrkIEw-183" value="1" style="text;html=1;align=center;verticalAlign=middle;resizable=0;points=[];autosize=1;strokeColor=none;fillColor=none;" parent="1" vertex="1">
          <mxGeometry x="1061" y="554" width="30" height="30" as="geometry" />
        </mxCell>
        <mxCell id="Ok6OW7ebjR_WHZtrkIEw-184" value="1" style="text;html=1;align=center;verticalAlign=middle;resizable=0;points=[];autosize=1;strokeColor=none;fillColor=none;" parent="1" vertex="1">
          <mxGeometry x="1061" y="595" width="30" height="30" as="geometry" />
        </mxCell>
        <mxCell id="Ok6OW7ebjR_WHZtrkIEw-185" value="0" style="text;html=1;align=center;verticalAlign=middle;resizable=0;points=[];autosize=1;strokeColor=none;fillColor=none;" parent="1" vertex="1">
          <mxGeometry x="1061" y="634" width="30" height="30" as="geometry" />
        </mxCell>
        <mxCell id="Ok6OW7ebjR_WHZtrkIEw-186" value="0" style="text;html=1;align=center;verticalAlign=middle;resizable=0;points=[];autosize=1;strokeColor=none;fillColor=none;" parent="1" vertex="1">
          <mxGeometry x="1061" y="673" width="30" height="30" as="geometry" />
        </mxCell>
        <mxCell id="Ok6OW7ebjR_WHZtrkIEw-187" value="0" style="text;html=1;align=center;verticalAlign=middle;resizable=0;points=[];autosize=1;strokeColor=none;fillColor=none;" parent="1" vertex="1">
          <mxGeometry x="1061" y="712" width="30" height="30" as="geometry" />
        </mxCell>
        <mxCell id="Ok6OW7ebjR_WHZtrkIEw-188" value="" style="shape=trapezoid;perimeter=trapezoidPerimeter;whiteSpace=wrap;html=1;fixedSize=1;direction=south;size=120;" parent="1" vertex="1">
          <mxGeometry x="1346" y="-293" width="80" height="680" as="geometry" />
        </mxCell>
        <mxCell id="Ok6OW7ebjR_WHZtrkIEw-189" value="" style="endArrow=none;html=1;rounded=0;" parent="1" edge="1">
          <mxGeometry width="50" height="50" relative="1" as="geometry">
            <mxPoint x="1286" y="-123" as="sourcePoint" />
            <mxPoint x="1346" y="-123" as="targetPoint" />
          </mxGeometry>
        </mxCell>
        <mxCell id="Ok6OW7ebjR_WHZtrkIEw-190" value="" style="endArrow=none;html=1;rounded=0;" parent="1" edge="1">
          <mxGeometry width="50" height="50" relative="1" as="geometry">
            <mxPoint x="1286" y="-83" as="sourcePoint" />
            <mxPoint x="1346" y="-83" as="targetPoint" />
          </mxGeometry>
        </mxCell>
        <mxCell id="Ok6OW7ebjR_WHZtrkIEw-191" value="" style="endArrow=none;html=1;rounded=0;" parent="1" edge="1">
          <mxGeometry width="50" height="50" relative="1" as="geometry">
            <mxPoint x="1286" y="-43" as="sourcePoint" />
            <mxPoint x="1346" y="-43" as="targetPoint" />
          </mxGeometry>
        </mxCell>
        <mxCell id="Ok6OW7ebjR_WHZtrkIEw-192" value="" style="endArrow=none;html=1;rounded=0;" parent="1" edge="1">
          <mxGeometry width="50" height="50" relative="1" as="geometry">
            <mxPoint x="1286" y="-3" as="sourcePoint" />
            <mxPoint x="1346" y="-3" as="targetPoint" />
          </mxGeometry>
        </mxCell>
        <mxCell id="Ok6OW7ebjR_WHZtrkIEw-193" value="" style="endArrow=none;html=1;rounded=0;" parent="1" edge="1">
          <mxGeometry width="50" height="50" relative="1" as="geometry">
            <mxPoint x="1286" y="37" as="sourcePoint" />
            <mxPoint x="1346" y="37" as="targetPoint" />
          </mxGeometry>
        </mxCell>
        <mxCell id="Ok6OW7ebjR_WHZtrkIEw-194" value="" style="endArrow=none;html=1;rounded=0;" parent="1" edge="1">
          <mxGeometry width="50" height="50" relative="1" as="geometry">
            <mxPoint x="1286" y="77" as="sourcePoint" />
            <mxPoint x="1346" y="77" as="targetPoint" />
          </mxGeometry>
        </mxCell>
        <mxCell id="Ok6OW7ebjR_WHZtrkIEw-195" value="" style="endArrow=none;html=1;rounded=0;" parent="1" edge="1">
          <mxGeometry width="50" height="50" relative="1" as="geometry">
            <mxPoint x="1286" y="117" as="sourcePoint" />
            <mxPoint x="1346" y="117" as="targetPoint" />
          </mxGeometry>
        </mxCell>
        <mxCell id="Ok6OW7ebjR_WHZtrkIEw-196" value="" style="endArrow=none;html=1;rounded=0;" parent="1" edge="1">
          <mxGeometry width="50" height="50" relative="1" as="geometry">
            <mxPoint x="1286" y="157" as="sourcePoint" />
            <mxPoint x="1346" y="157" as="targetPoint" />
          </mxGeometry>
        </mxCell>
        <mxCell id="Ok6OW7ebjR_WHZtrkIEw-197" value="" style="endArrow=none;html=1;rounded=0;" parent="1" edge="1">
          <mxGeometry width="50" height="50" relative="1" as="geometry">
            <mxPoint x="1286" y="317" as="sourcePoint" />
            <mxPoint x="1346" y="317" as="targetPoint" />
          </mxGeometry>
        </mxCell>
        <mxCell id="Ok6OW7ebjR_WHZtrkIEw-198" value="" style="endArrow=none;html=1;rounded=0;" parent="1" edge="1">
          <mxGeometry width="50" height="50" relative="1" as="geometry">
            <mxPoint x="1286" y="277" as="sourcePoint" />
            <mxPoint x="1346" y="277" as="targetPoint" />
          </mxGeometry>
        </mxCell>
        <mxCell id="Ok6OW7ebjR_WHZtrkIEw-199" value="" style="endArrow=none;html=1;rounded=0;" parent="1" edge="1">
          <mxGeometry width="50" height="50" relative="1" as="geometry">
            <mxPoint x="1286" y="237" as="sourcePoint" />
            <mxPoint x="1346" y="237" as="targetPoint" />
          </mxGeometry>
        </mxCell>
        <mxCell id="Ok6OW7ebjR_WHZtrkIEw-200" value="" style="endArrow=none;html=1;rounded=0;" parent="1" edge="1">
          <mxGeometry width="50" height="50" relative="1" as="geometry">
            <mxPoint x="1286" y="197" as="sourcePoint" />
            <mxPoint x="1346" y="197" as="targetPoint" />
          </mxGeometry>
        </mxCell>
        <mxCell id="Ok6OW7ebjR_WHZtrkIEw-201" value="" style="endArrow=none;html=1;rounded=0;" parent="1" edge="1">
          <mxGeometry width="50" height="50" relative="1" as="geometry">
            <mxPoint x="1286" y="-243" as="sourcePoint" />
            <mxPoint x="1346" y="-243" as="targetPoint" />
          </mxGeometry>
        </mxCell>
        <mxCell id="Ok6OW7ebjR_WHZtrkIEw-202" value="" style="endArrow=none;html=1;rounded=0;" parent="1" edge="1">
          <mxGeometry width="50" height="50" relative="1" as="geometry">
            <mxPoint x="1286" y="-203" as="sourcePoint" />
            <mxPoint x="1346" y="-203" as="targetPoint" />
          </mxGeometry>
        </mxCell>
        <mxCell id="Ok6OW7ebjR_WHZtrkIEw-203" value="" style="endArrow=none;html=1;rounded=0;" parent="1" edge="1">
          <mxGeometry width="50" height="50" relative="1" as="geometry">
            <mxPoint x="1286" y="-163" as="sourcePoint" />
            <mxPoint x="1346" y="-163" as="targetPoint" />
          </mxGeometry>
        </mxCell>
        <mxCell id="Ok6OW7ebjR_WHZtrkIEw-204" value="" style="endArrow=none;html=1;rounded=0;" parent="1" edge="1">
          <mxGeometry width="50" height="50" relative="1" as="geometry">
            <mxPoint x="1286" y="357" as="sourcePoint" />
            <mxPoint x="1346" y="357" as="targetPoint" />
          </mxGeometry>
        </mxCell>
        <mxCell id="Ok6OW7ebjR_WHZtrkIEw-205" value="" style="endArrow=none;html=1;rounded=0;" parent="1" edge="1">
          <mxGeometry width="50" height="50" relative="1" as="geometry">
            <mxPoint x="1426" y="37" as="sourcePoint" />
            <mxPoint x="1533" y="37" as="targetPoint" />
          </mxGeometry>
        </mxCell>
        <mxCell id="Ok6OW7ebjR_WHZtrkIEw-206" value="16*1 MUX" style="text;html=1;align=center;verticalAlign=middle;resizable=0;points=[];autosize=1;strokeColor=none;fillColor=none;" parent="1" vertex="1">
          <mxGeometry x="1346" y="22" width="80" height="30" as="geometry" />
        </mxCell>
        <mxCell id="Ok6OW7ebjR_WHZtrkIEw-207" value="Shift_Flag" style="text;html=1;align=center;verticalAlign=middle;resizable=0;points=[];autosize=1;strokeColor=none;fillColor=none;" parent="1" vertex="1">
          <mxGeometry x="1433" y="9" width="80" height="30" as="geometry" />
        </mxCell>
        <mxCell id="Ok6OW7ebjR_WHZtrkIEw-208" value="0" style="text;html=1;align=center;verticalAlign=middle;resizable=0;points=[];autosize=1;strokeColor=none;fillColor=none;" parent="1" vertex="1">
          <mxGeometry x="1273" y="-268" width="30" height="30" as="geometry" />
        </mxCell>
        <mxCell id="Ok6OW7ebjR_WHZtrkIEw-209" value="0" style="text;html=1;align=center;verticalAlign=middle;resizable=0;points=[];autosize=1;strokeColor=none;fillColor=none;" parent="1" vertex="1">
          <mxGeometry x="1273" y="-228" width="30" height="30" as="geometry" />
        </mxCell>
        <mxCell id="Ok6OW7ebjR_WHZtrkIEw-210" value="0" style="text;html=1;align=center;verticalAlign=middle;resizable=0;points=[];autosize=1;strokeColor=none;fillColor=none;" parent="1" vertex="1">
          <mxGeometry x="1273" y="-193" width="30" height="30" as="geometry" />
        </mxCell>
        <mxCell id="Ok6OW7ebjR_WHZtrkIEw-211" value="0" style="text;html=1;align=center;verticalAlign=middle;resizable=0;points=[];autosize=1;strokeColor=none;fillColor=none;" parent="1" vertex="1">
          <mxGeometry x="1273" y="-150" width="30" height="30" as="geometry" />
        </mxCell>
        <mxCell id="Ok6OW7ebjR_WHZtrkIEw-212" value="0" style="text;html=1;align=center;verticalAlign=middle;resizable=0;points=[];autosize=1;strokeColor=none;fillColor=none;" parent="1" vertex="1">
          <mxGeometry x="1273" y="-110" width="30" height="30" as="geometry" />
        </mxCell>
        <mxCell id="Ok6OW7ebjR_WHZtrkIEw-213" value="0" style="text;html=1;align=center;verticalAlign=middle;resizable=0;points=[];autosize=1;strokeColor=none;fillColor=none;" parent="1" vertex="1">
          <mxGeometry x="1273" y="-71" width="30" height="30" as="geometry" />
        </mxCell>
        <mxCell id="Ok6OW7ebjR_WHZtrkIEw-214" value="0" style="text;html=1;align=center;verticalAlign=middle;resizable=0;points=[];autosize=1;strokeColor=none;fillColor=none;" parent="1" vertex="1">
          <mxGeometry x="1273" y="-28" width="30" height="30" as="geometry" />
        </mxCell>
        <mxCell id="Ok6OW7ebjR_WHZtrkIEw-215" value="0" style="text;html=1;align=center;verticalAlign=middle;resizable=0;points=[];autosize=1;strokeColor=none;fillColor=none;" parent="1" vertex="1">
          <mxGeometry x="1273" y="14" width="30" height="30" as="geometry" />
        </mxCell>
        <mxCell id="Ok6OW7ebjR_WHZtrkIEw-216" value="0" style="text;html=1;align=center;verticalAlign=middle;resizable=0;points=[];autosize=1;strokeColor=none;fillColor=none;" parent="1" vertex="1">
          <mxGeometry x="1273" y="52" width="30" height="30" as="geometry" />
        </mxCell>
        <mxCell id="Ok6OW7ebjR_WHZtrkIEw-217" value="0" style="text;html=1;align=center;verticalAlign=middle;resizable=0;points=[];autosize=1;strokeColor=none;fillColor=none;" parent="1" vertex="1">
          <mxGeometry x="1273" y="90" width="30" height="30" as="geometry" />
        </mxCell>
        <mxCell id="Ok6OW7ebjR_WHZtrkIEw-218" value="0" style="text;html=1;align=center;verticalAlign=middle;resizable=0;points=[];autosize=1;strokeColor=none;fillColor=none;" parent="1" vertex="1">
          <mxGeometry x="1273" y="134" width="30" height="30" as="geometry" />
        </mxCell>
        <mxCell id="Ok6OW7ebjR_WHZtrkIEw-219" value="0" style="text;html=1;align=center;verticalAlign=middle;resizable=0;points=[];autosize=1;strokeColor=none;fillColor=none;" parent="1" vertex="1">
          <mxGeometry x="1273" y="172" width="30" height="30" as="geometry" />
        </mxCell>
        <mxCell id="Ok6OW7ebjR_WHZtrkIEw-220" value="0" style="text;html=1;align=center;verticalAlign=middle;resizable=0;points=[];autosize=1;strokeColor=none;fillColor=none;" parent="1" vertex="1">
          <mxGeometry x="1273" y="213" width="30" height="30" as="geometry" />
        </mxCell>
        <mxCell id="Ok6OW7ebjR_WHZtrkIEw-221" value="1" style="text;html=1;align=center;verticalAlign=middle;resizable=0;points=[];autosize=1;strokeColor=none;fillColor=none;" parent="1" vertex="1">
          <mxGeometry x="1273" y="252" width="30" height="30" as="geometry" />
        </mxCell>
        <mxCell id="Ok6OW7ebjR_WHZtrkIEw-222" value="1" style="text;html=1;align=center;verticalAlign=middle;resizable=0;points=[];autosize=1;strokeColor=none;fillColor=none;" parent="1" vertex="1">
          <mxGeometry x="1273" y="291" width="30" height="30" as="geometry" />
        </mxCell>
        <mxCell id="Ok6OW7ebjR_WHZtrkIEw-223" value="0" style="text;html=1;align=center;verticalAlign=middle;resizable=0;points=[];autosize=1;strokeColor=none;fillColor=none;" parent="1" vertex="1">
          <mxGeometry x="1273" y="330" width="30" height="30" as="geometry" />
        </mxCell>
        <mxCell id="qwn3S0I-8Y9VkRRU26vE-36" value="" style="shape=trapezoid;perimeter=trapezoidPerimeter;whiteSpace=wrap;html=1;fixedSize=1;direction=south;size=120;" vertex="1" parent="1">
          <mxGeometry x="517" y="-298" width="80" height="680" as="geometry" />
        </mxCell>
        <mxCell id="qwn3S0I-8Y9VkRRU26vE-37" value="" style="endArrow=none;html=1;rounded=0;" edge="1" parent="1">
          <mxGeometry width="50" height="50" relative="1" as="geometry">
            <mxPoint x="457" y="-128" as="sourcePoint" />
            <mxPoint x="517" y="-128" as="targetPoint" />
          </mxGeometry>
        </mxCell>
        <mxCell id="qwn3S0I-8Y9VkRRU26vE-38" value="" style="endArrow=none;html=1;rounded=0;" edge="1" parent="1">
          <mxGeometry width="50" height="50" relative="1" as="geometry">
            <mxPoint x="457" y="-88" as="sourcePoint" />
            <mxPoint x="517" y="-88" as="targetPoint" />
          </mxGeometry>
        </mxCell>
        <mxCell id="qwn3S0I-8Y9VkRRU26vE-39" value="" style="endArrow=none;html=1;rounded=0;" edge="1" parent="1">
          <mxGeometry width="50" height="50" relative="1" as="geometry">
            <mxPoint x="457" y="-48" as="sourcePoint" />
            <mxPoint x="517" y="-48" as="targetPoint" />
          </mxGeometry>
        </mxCell>
        <mxCell id="qwn3S0I-8Y9VkRRU26vE-40" value="" style="endArrow=none;html=1;rounded=0;" edge="1" parent="1">
          <mxGeometry width="50" height="50" relative="1" as="geometry">
            <mxPoint x="457" y="-8" as="sourcePoint" />
            <mxPoint x="517" y="-8" as="targetPoint" />
          </mxGeometry>
        </mxCell>
        <mxCell id="qwn3S0I-8Y9VkRRU26vE-41" value="" style="endArrow=none;html=1;rounded=0;" edge="1" parent="1">
          <mxGeometry width="50" height="50" relative="1" as="geometry">
            <mxPoint x="457" y="32" as="sourcePoint" />
            <mxPoint x="517" y="32" as="targetPoint" />
          </mxGeometry>
        </mxCell>
        <mxCell id="qwn3S0I-8Y9VkRRU26vE-42" value="" style="endArrow=none;html=1;rounded=0;" edge="1" parent="1">
          <mxGeometry width="50" height="50" relative="1" as="geometry">
            <mxPoint x="457" y="72" as="sourcePoint" />
            <mxPoint x="517" y="72" as="targetPoint" />
          </mxGeometry>
        </mxCell>
        <mxCell id="qwn3S0I-8Y9VkRRU26vE-43" value="" style="endArrow=none;html=1;rounded=0;" edge="1" parent="1">
          <mxGeometry width="50" height="50" relative="1" as="geometry">
            <mxPoint x="457" y="112" as="sourcePoint" />
            <mxPoint x="517" y="112" as="targetPoint" />
          </mxGeometry>
        </mxCell>
        <mxCell id="qwn3S0I-8Y9VkRRU26vE-44" value="" style="endArrow=none;html=1;rounded=0;" edge="1" parent="1">
          <mxGeometry width="50" height="50" relative="1" as="geometry">
            <mxPoint x="457" y="152" as="sourcePoint" />
            <mxPoint x="517" y="152" as="targetPoint" />
          </mxGeometry>
        </mxCell>
        <mxCell id="qwn3S0I-8Y9VkRRU26vE-45" value="" style="endArrow=none;html=1;rounded=0;" edge="1" parent="1">
          <mxGeometry width="50" height="50" relative="1" as="geometry">
            <mxPoint x="457" y="312" as="sourcePoint" />
            <mxPoint x="517" y="312" as="targetPoint" />
          </mxGeometry>
        </mxCell>
        <mxCell id="qwn3S0I-8Y9VkRRU26vE-46" value="" style="endArrow=none;html=1;rounded=0;" edge="1" parent="1">
          <mxGeometry width="50" height="50" relative="1" as="geometry">
            <mxPoint x="457" y="272" as="sourcePoint" />
            <mxPoint x="517" y="272" as="targetPoint" />
          </mxGeometry>
        </mxCell>
        <mxCell id="qwn3S0I-8Y9VkRRU26vE-47" value="" style="endArrow=none;html=1;rounded=0;" edge="1" parent="1">
          <mxGeometry width="50" height="50" relative="1" as="geometry">
            <mxPoint x="457" y="232" as="sourcePoint" />
            <mxPoint x="517" y="232" as="targetPoint" />
          </mxGeometry>
        </mxCell>
        <mxCell id="qwn3S0I-8Y9VkRRU26vE-48" value="" style="endArrow=none;html=1;rounded=0;" edge="1" parent="1">
          <mxGeometry width="50" height="50" relative="1" as="geometry">
            <mxPoint x="457" y="192" as="sourcePoint" />
            <mxPoint x="517" y="192" as="targetPoint" />
          </mxGeometry>
        </mxCell>
        <mxCell id="qwn3S0I-8Y9VkRRU26vE-51" value="" style="endArrow=none;html=1;rounded=0;" edge="1" parent="1">
          <mxGeometry width="50" height="50" relative="1" as="geometry">
            <mxPoint x="457" y="-168" as="sourcePoint" />
            <mxPoint x="517" y="-168" as="targetPoint" />
          </mxGeometry>
        </mxCell>
        <mxCell id="qwn3S0I-8Y9VkRRU26vE-52" value="" style="endArrow=none;html=1;rounded=0;" edge="1" parent="1">
          <mxGeometry width="50" height="50" relative="1" as="geometry">
            <mxPoint x="457" y="352" as="sourcePoint" />
            <mxPoint x="517" y="352" as="targetPoint" />
          </mxGeometry>
        </mxCell>
        <mxCell id="qwn3S0I-8Y9VkRRU26vE-53" value="16*1 MUX" style="text;html=1;align=center;verticalAlign=middle;resizable=0;points=[];autosize=1;strokeColor=none;fillColor=none;" vertex="1" parent="1">
          <mxGeometry x="517" y="17" width="80" height="30" as="geometry" />
        </mxCell>
        <mxCell id="qwn3S0I-8Y9VkRRU26vE-57" value="0" style="text;html=1;align=center;verticalAlign=middle;resizable=0;points=[];autosize=1;strokeColor=none;fillColor=none;" vertex="1" parent="1">
          <mxGeometry x="447" y="-196" width="25" height="26" as="geometry" />
        </mxCell>
        <mxCell id="qwn3S0I-8Y9VkRRU26vE-58" value="0" style="text;html=1;align=center;verticalAlign=middle;resizable=0;points=[];autosize=1;strokeColor=none;fillColor=none;" vertex="1" parent="1">
          <mxGeometry x="447" y="-153" width="25" height="26" as="geometry" />
        </mxCell>
        <mxCell id="qwn3S0I-8Y9VkRRU26vE-59" value="0" style="text;html=1;align=center;verticalAlign=middle;resizable=0;points=[];autosize=1;strokeColor=none;fillColor=none;" vertex="1" parent="1">
          <mxGeometry x="444" y="-115" width="30" height="30" as="geometry" />
        </mxCell>
        <mxCell id="qwn3S0I-8Y9VkRRU26vE-60" value="0" style="text;html=1;align=center;verticalAlign=middle;resizable=0;points=[];autosize=1;strokeColor=none;fillColor=none;" vertex="1" parent="1">
          <mxGeometry x="444" y="-76" width="30" height="30" as="geometry" />
        </mxCell>
        <mxCell id="qwn3S0I-8Y9VkRRU26vE-61" value="0" style="text;html=1;align=center;verticalAlign=middle;resizable=0;points=[];autosize=1;strokeColor=none;fillColor=none;" vertex="1" parent="1">
          <mxGeometry x="444" y="-33" width="30" height="30" as="geometry" />
        </mxCell>
        <mxCell id="qwn3S0I-8Y9VkRRU26vE-62" value="0" style="text;html=1;align=center;verticalAlign=middle;resizable=0;points=[];autosize=1;strokeColor=none;fillColor=none;" vertex="1" parent="1">
          <mxGeometry x="444" y="9" width="30" height="30" as="geometry" />
        </mxCell>
        <mxCell id="qwn3S0I-8Y9VkRRU26vE-63" value="0" style="text;html=1;align=center;verticalAlign=middle;resizable=0;points=[];autosize=1;strokeColor=none;fillColor=none;" vertex="1" parent="1">
          <mxGeometry x="444" y="47" width="30" height="30" as="geometry" />
        </mxCell>
        <mxCell id="qwn3S0I-8Y9VkRRU26vE-64" value="0" style="text;html=1;align=center;verticalAlign=middle;resizable=0;points=[];autosize=1;strokeColor=none;fillColor=none;" vertex="1" parent="1">
          <mxGeometry x="444" y="85" width="30" height="30" as="geometry" />
        </mxCell>
        <mxCell id="qwn3S0I-8Y9VkRRU26vE-65" value="0" style="text;html=1;align=center;verticalAlign=middle;resizable=0;points=[];autosize=1;strokeColor=none;fillColor=none;" vertex="1" parent="1">
          <mxGeometry x="444" y="129" width="30" height="30" as="geometry" />
        </mxCell>
        <mxCell id="qwn3S0I-8Y9VkRRU26vE-66" value="0" style="text;html=1;align=center;verticalAlign=middle;resizable=0;points=[];autosize=1;strokeColor=none;fillColor=none;" vertex="1" parent="1">
          <mxGeometry x="444" y="167" width="30" height="30" as="geometry" />
        </mxCell>
        <mxCell id="qwn3S0I-8Y9VkRRU26vE-67" value="0" style="text;html=1;align=center;verticalAlign=middle;resizable=0;points=[];autosize=1;strokeColor=none;fillColor=none;" vertex="1" parent="1">
          <mxGeometry x="444" y="208" width="30" height="30" as="geometry" />
        </mxCell>
        <mxCell id="qwn3S0I-8Y9VkRRU26vE-68" value="0" style="text;html=1;align=center;verticalAlign=middle;resizable=0;points=[];autosize=1;strokeColor=none;fillColor=none;" vertex="1" parent="1">
          <mxGeometry x="444" y="247" width="30" height="30" as="geometry" />
        </mxCell>
        <mxCell id="qwn3S0I-8Y9VkRRU26vE-69" value="0" style="text;html=1;align=center;verticalAlign=middle;resizable=0;points=[];autosize=1;strokeColor=none;fillColor=none;" vertex="1" parent="1">
          <mxGeometry x="444" y="286" width="30" height="30" as="geometry" />
        </mxCell>
        <mxCell id="qwn3S0I-8Y9VkRRU26vE-70" value="0" style="text;html=1;align=center;verticalAlign=middle;resizable=0;points=[];autosize=1;strokeColor=none;fillColor=none;" vertex="1" parent="1">
          <mxGeometry x="444" y="325" width="30" height="30" as="geometry" />
        </mxCell>
        <mxCell id="qwn3S0I-8Y9VkRRU26vE-72" value="" style="endArrow=none;html=1;rounded=0;" edge="1" parent="1">
          <mxGeometry width="50" height="50" relative="1" as="geometry">
            <mxPoint x="597" y="37.67" as="sourcePoint" />
            <mxPoint x="704" y="37.67" as="targetPoint" />
          </mxGeometry>
        </mxCell>
      </root>
    </mxGraphModel>
  </diagram>
</mxfile>
